<svg width="367" height="251" viewBox="0 0 367 251" fill="none" xmlns="http://www.w3.org/2000/svg">
<path d="M13.6065 0.0942383L13.6064 250.094" stroke="url(#paint0_linear)"/>
<path d="M65.8814 0.0942383L65.8813 250.094" stroke="url(#paint1_linear)"/>
<path d="M118.156 0.0942383L118.156 250.094" stroke="url(#paint2_linear)"/>
<path d="M170.431 0.0942383L170.431 250.094" stroke="url(#paint3_linear)"/>
<path d="M222.706 0.0942383L222.706 250.094" stroke="url(#paint4_linear)"/>
<path d="M274.981 0.0942383L274.981 250.094" stroke="url(#paint5_linear)"/>
<path d="M327.256 0.0942383L327.256 250.094" stroke="url(#paint6_linear)"/>
<path d="M39.7439 0.0942383L39.7439 250.094" stroke="url(#paint7_linear)"/>
<path d="M92.0188 0.0942383L92.0188 250.094" stroke="url(#paint8_linear)"/>
<path d="M144.294 0.0942383L144.294 250.094" stroke="url(#paint9_linear)"/>
<path d="M196.569 0.0942383L196.569 250.094" stroke="url(#paint10_linear)"/>
<path d="M248.844 0.0942383L248.844 250.094" stroke="url(#paint11_linear)"/>
<path d="M301.118 0.0942383L301.118 250.094" stroke="url(#paint12_linear)"/>
<path d="M353.393 0.0942383L353.393 250.094" stroke="url(#paint13_linear)"/>
<path d="M367 7.47572L0.751988 7.47569" stroke="url(#paint14_linear)"/>
<path d="M367 59.7506L0.751988 59.7506" stroke="url(#paint15_linear)"/>
<path d="M367 112.026L0.751988 112.025" stroke="url(#paint16_linear)"/>
<path d="M367 164.3L0.751988 164.3" stroke="url(#paint17_linear)"/>
<path d="M367 216.575L0.751988 216.575" stroke="url(#paint18_linear)"/>
<path d="M367 33.6132L0.751988 33.6131" stroke="url(#paint19_linear)"/>
<path d="M367 85.8881L0.751988 85.888" stroke="url(#paint20_linear)"/>
<path d="M367 138.163L0.751988 138.163" stroke="url(#paint21_linear)"/>
<path d="M367 190.438L0.751988 190.438" stroke="url(#paint22_linear)"/>
<path d="M367 242.713L0.751988 242.713" stroke="url(#paint23_linear)"/>
<path d="M0.751953 45.9801L16.8673 31.6912L146.327 138.59L130.212 152.879L0.751953 45.9801Z" fill="url(#paint24_linear)"/>
<path d="M151.699 117.532L167.814 103.351L147.294 141.383L131.179 155.672L151.699 117.532Z" fill="url(#paint25_linear)"/>
<path d="M150.732 114.739L166.848 100.557L246.672 166.523L230.557 180.704L150.732 114.739Z" fill="url(#paint26_linear)"/>
<path d="M253.978 142.028L270.201 127.739L247.747 169.209L231.631 183.498L253.978 142.028Z" fill="url(#paint27_linear)"/>
<path d="M327.141 200.365L343.257 186.184L342.612 187.473L326.389 201.762L327.141 200.365Z" fill="#1F914D"/>
<path d="M253.011 139.234L269.126 124.945L343.257 186.184L327.141 200.365L253.011 139.234Z" fill="url(#paint28_linear)"/>
<path d="M0.752049 45.9801L130.212 152.879L150.732 114.739L230.557 180.704L253.011 139.234L327.141 200.365L326.389 201.762L253.978 142.028L231.631 183.498L151.699 117.532L131.179 155.672L130.319 154.92L0 47.3768L0.752049 45.9801Z" fill="url(#paint29_linear)"/>
<path d="M347.232 172.217L308.233 207.563L367 218.092L347.232 172.217Z" fill="url(#paint30_linear)"/>
<path d="M308.233 207.563L308.34 209.39L365.711 219.274L367 218.092L308.233 207.563Z" fill="url(#paint31_linear)"/>
<defs>
<linearGradient id="paint0_linear" x1="13.6065" y1="0.0942383" x2="13.6065" y2="250.094" gradientUnits="userSpaceOnUse">
<stop stop-color="#1F914D"/>
<stop offset="0.534375" stop-color="#F0F6F2"/>
<stop offset="1" stop-color="#93DAAE"/>
</linearGradient>
<linearGradient id="paint1_linear" x1="65.8814" y1="0.0942383" x2="65.8814" y2="250.094" gradientUnits="userSpaceOnUse">
<stop stop-color="#1F914D"/>
<stop offset="0.534375" stop-color="#F0F6F2"/>
<stop offset="1" stop-color="#93DAAE"/>
</linearGradient>
<linearGradient id="paint2_linear" x1="118.156" y1="0.0942383" x2="118.156" y2="250.094" gradientUnits="userSpaceOnUse">
<stop stop-color="#1F914D"/>
<stop offset="0.534375" stop-color="#F0F6F2"/>
<stop offset="1" stop-color="#93DAAE"/>
</linearGradient>
<linearGradient id="paint3_linear" x1="170.431" y1="0.0942383" x2="170.431" y2="250.094" gradientUnits="userSpaceOnUse">
<stop stop-color="#1F914D"/>
<stop offset="0.534375" stop-color="#F0F6F2"/>
<stop offset="1" stop-color="#93DAAE"/>
</linearGradient>
<linearGradient id="paint4_linear" x1="222.706" y1="0.0942383" x2="222.706" y2="250.094" gradientUnits="userSpaceOnUse">
<stop stop-color="#1F914D"/>
<stop offset="0.534375" stop-color="#F0F6F2"/>
<stop offset="1" stop-color="#93DAAE"/>
</linearGradient>
<linearGradient id="paint5_linear" x1="274.981" y1="0.0942383" x2="274.981" y2="250.094" gradientUnits="userSpaceOnUse">
<stop stop-color="#1F914D"/>
<stop offset="0.534375" stop-color="#F0F6F2"/>
<stop offset="1" stop-color="#93DAAE"/>
</linearGradient>
<linearGradient id="paint6_linear" x1="327.256" y1="0.0942383" x2="327.256" y2="250.094" gradientUnits="userSpaceOnUse">
<stop stop-color="#1F914D"/>
<stop offset="0.534375" stop-color="#F0F6F2"/>
<stop offset="1" stop-color="#93DAAE"/>
</linearGradient>
<linearGradient id="paint7_linear" x1="39.7439" y1="0.0942383" x2="39.7439" y2="250.094" gradientUnits="userSpaceOnUse">
<stop stop-color="#1F914D"/>
<stop offset="0.534375" stop-color="#F0F6F2"/>
<stop offset="1" stop-color="#93DAAE"/>
</linearGradient>
<linearGradient id="paint8_linear" x1="92.0188" y1="0.0942383" x2="92.0188" y2="250.094" gradientUnits="userSpaceOnUse">
<stop stop-color="#1F914D"/>
<stop offset="0.534375" stop-color="#F0F6F2"/>
<stop offset="1" stop-color="#93DAAE"/>
</linearGradient>
<linearGradient id="paint9_linear" x1="144.294" y1="0.0942383" x2="144.294" y2="250.094" gradientUnits="userSpaceOnUse">
<stop stop-color="#1F914D"/>
<stop offset="0.534375" stop-color="#F0F6F2"/>
<stop offset="1" stop-color="#93DAAE"/>
</linearGradient>
<linearGradient id="paint10_linear" x1="196.569" y1="0.0942383" x2="196.569" y2="250.094" gradientUnits="userSpaceOnUse">
<stop stop-color="#1F914D"/>
<stop offset="0.534375" stop-color="#F0F6F2"/>
<stop offset="1" stop-color="#93DAAE"/>
</linearGradient>
<linearGradient id="paint11_linear" x1="248.844" y1="0.0942383" x2="248.844" y2="250.094" gradientUnits="userSpaceOnUse">
<stop stop-color="#1F914D"/>
<stop offset="0.534375" stop-color="#F0F6F2"/>
<stop offset="1" stop-color="#93DAAE"/>
</linearGradient>
<linearGradient id="paint12_linear" x1="301.118" y1="0.0942383" x2="301.118" y2="250.094" gradientUnits="userSpaceOnUse">
<stop stop-color="#1F914D"/>
<stop offset="0.534375" stop-color="#F0F6F2"/>
<stop offset="1" stop-color="#93DAAE"/>
</linearGradient>
<linearGradient id="paint13_linear" x1="353.393" y1="0.0942383" x2="353.393" y2="250.094" gradientUnits="userSpaceOnUse">
<stop stop-color="#1F914D"/>
<stop offset="0.534375" stop-color="#F0F6F2"/>
<stop offset="1" stop-color="#93DAAE"/>
</linearGradient>
<linearGradient id="paint14_linear" x1="367" y1="7.47571" x2="0.751984" y2="7.4757" gradientUnits="userSpaceOnUse">
<stop stop-color="#1F914D"/>
<stop offset="0.404167" stop-color="#F0F6F2"/>
<stop offset="0.701042" stop-color="#F0F6F2"/>
<stop offset="1" stop-color="#93DAAE"/>
</linearGradient>
<linearGradient id="paint15_linear" x1="367" y1="59.7506" x2="0.751984" y2="59.7506" gradientUnits="userSpaceOnUse">
<stop stop-color="#1F914D"/>
<stop offset="0.404167" stop-color="#F0F6F2"/>
<stop offset="0.701042" stop-color="#F0F6F2"/>
<stop offset="1" stop-color="#93DAAE"/>
</linearGradient>
<linearGradient id="paint16_linear" x1="367" y1="112.026" x2="0.751984" y2="112.026" gradientUnits="userSpaceOnUse">
<stop stop-color="#1F914D"/>
<stop offset="0.404167" stop-color="#F0F6F2"/>
<stop offset="0.701042" stop-color="#F0F6F2"/>
<stop offset="1" stop-color="#93DAAE"/>
</linearGradient>
<linearGradient id="paint17_linear" x1="367" y1="164.3" x2="0.751984" y2="164.3" gradientUnits="userSpaceOnUse">
<stop stop-color="#1F914D"/>
<stop offset="0.404167" stop-color="#F0F6F2"/>
<stop offset="0.701042" stop-color="#F0F6F2"/>
<stop offset="1" stop-color="#93DAAE"/>
</linearGradient>
<linearGradient id="paint18_linear" x1="367" y1="216.575" x2="0.751984" y2="216.575" gradientUnits="userSpaceOnUse">
<stop stop-color="#1F914D"/>
<stop offset="0.404167" stop-color="#F0F6F2"/>
<stop offset="0.701042" stop-color="#F0F6F2"/>
<stop offset="1" stop-color="#93DAAE"/>
</linearGradient>
<linearGradient id="paint19_linear" x1="367" y1="33.6132" x2="0.751984" y2="33.6131" gradientUnits="userSpaceOnUse">
<stop stop-color="#1F914D"/>
<stop offset="0.404167" stop-color="#F0F6F2"/>
<stop offset="0.701042" stop-color="#F0F6F2"/>
<stop offset="1" stop-color="#93DAAE"/>
</linearGradient>
<linearGradient id="paint20_linear" x1="367" y1="85.8881" x2="0.751984" y2="85.8881" gradientUnits="userSpaceOnUse">
<stop stop-color="#1F914D"/>
<stop offset="0.404167" stop-color="#F0F6F2"/>
<stop offset="0.701042" stop-color="#F0F6F2"/>
<stop offset="1" stop-color="#93DAAE"/>
</linearGradient>
<linearGradient id="paint21_linear" x1="367" y1="138.163" x2="0.751984" y2="138.163" gradientUnits="userSpaceOnUse">
<stop stop-color="#1F914D"/>
<stop offset="0.404167" stop-color="#F0F6F2"/>
<stop offset="0.701042" stop-color="#F0F6F2"/>
<stop offset="1" stop-color="#93DAAE"/>
</linearGradient>
<linearGradient id="paint22_linear" x1="367" y1="190.438" x2="0.751984" y2="190.438" gradientUnits="userSpaceOnUse">
<stop stop-color="#1F914D"/>
<stop offset="0.404167" stop-color="#F0F6F2"/>
<stop offset="0.701042" stop-color="#F0F6F2"/>
<stop offset="1" stop-color="#93DAAE"/>
</linearGradient>
<linearGradient id="paint23_linear" x1="367" y1="242.713" x2="0.751984" y2="242.713" gradientUnits="userSpaceOnUse">
<stop stop-color="#1F914D"/>
<stop offset="0.404167" stop-color="#F0F6F2"/>
<stop offset="0.701042" stop-color="#F0F6F2"/>
<stop offset="1" stop-color="#93DAAE"/>
</linearGradient>
<linearGradient id="paint24_linear" x1="21.9482" y1="48.0399" x2="135.548" y2="145.471" gradientUnits="userSpaceOnUse">
<stop stop-color="#25C49E"/>
<stop offset="1" stop-color="#93DAAE"/>
</linearGradient>
<linearGradient id="paint25_linear" x1="112.231" y1="201.618" x2="158.774" y2="111.544" gradientUnits="userSpaceOnUse">
<stop stop-color="#93DAAE"/>
<stop offset="0.396" stop-color="#93DAAE"/>
<stop offset="1" stop-color="#1F914D"/>
</linearGradient>
<linearGradient id="paint26_linear" x1="164.963" y1="110.221" x2="233.893" y2="172.307" gradientUnits="userSpaceOnUse">
<stop stop-color="#25C49E"/>
<stop offset="1" stop-color="#93DAAE"/>
</linearGradient>
<linearGradient id="paint27_linear" x1="217.008" y1="226.509" x2="258.384" y2="139.902" gradientUnits="userSpaceOnUse">
<stop stop-color="#93DAAE"/>
<stop offset="0.396" stop-color="#93DAAE"/>
<stop offset="1" stop-color="#1F914D"/>
</linearGradient>
<linearGradient id="paint28_linear" x1="274.144" y1="140.139" x2="369.328" y2="229.409" gradientUnits="userSpaceOnUse">
<stop stop-color="#25C49E"/>
<stop offset="1" stop-color="#93DAAE"/>
</linearGradient>
<linearGradient id="paint29_linear" x1="178.62" y1="197.787" x2="152.572" y2="69.7462" gradientUnits="userSpaceOnUse">
<stop stop-color="#25C49E"/>
<stop offset="1" stop-color="#93DAAE"/>
</linearGradient>
<linearGradient id="paint30_linear" x1="274.411" y1="139.85" x2="369.597" y2="229.122" gradientUnits="userSpaceOnUse">
<stop stop-color="#25C49E"/>
<stop offset="1" stop-color="#93DAAE"/>
</linearGradient>
<linearGradient id="paint31_linear" x1="335.011" y1="205.471" x2="323.764" y2="170.43" gradientUnits="userSpaceOnUse">
<stop stop-color="#25C49E"/>
<stop offset="1" stop-color="#93DAAE"/>
</linearGradient>
</defs>
</svg>
