<svg width="367" height="251" viewBox="0 0 367 251" fill="none" xmlns="http://www.w3.org/2000/svg">
<path d="M32.3259 233.251C23.9296 233.251 17.0552 226.429 17.0552 217.981C17.0552 209.532 23.8772 202.71 32.3259 202.71C40.7747 202.71 47.5967 209.532 47.5967 217.981C47.5967 226.429 40.7222 233.251 32.3259 233.251ZM32.3259 205.439C25.399 205.439 19.784 211.054 19.784 217.981C19.784 224.908 25.399 230.523 32.3259 230.523C39.2528 230.523 44.8679 224.908 44.8679 217.981C44.8679 211.054 39.2528 205.439 32.3259 205.439Z" fill="#25C49E"/>
<path d="M32.3259 200.768C29.7546 200.768 27.603 198.669 27.603 196.045C27.603 193.422 29.7021 191.323 32.3259 191.323C34.9498 191.323 37.0488 193.422 37.0488 196.045C37.0488 198.669 34.8973 200.768 32.3259 200.768ZM32.3259 194.104C31.2239 194.104 30.3318 194.996 30.3318 196.098C30.3318 197.2 31.2239 198.092 32.3259 198.092C33.4279 198.092 34.3201 197.2 34.3201 196.098C34.3201 194.996 33.4279 194.104 32.3259 194.104Z" fill="#25C49E"/>
<path d="M47.8062 207.17C46.5467 207.17 45.3922 206.698 44.5001 205.806C43.608 204.914 43.1357 203.759 43.1357 202.5C43.1357 201.241 43.608 200.086 44.5001 199.194C46.3368 197.357 49.328 197.357 51.1647 199.194C52.0568 200.086 52.5291 201.241 52.5291 202.5C52.5291 203.759 52.0568 204.914 51.1647 205.806C50.2201 206.698 49.0656 207.17 47.8062 207.17ZM46.3893 201.083C46.022 201.45 45.8121 201.975 45.8121 202.5C45.8121 203.025 46.022 203.549 46.3893 203.917C47.124 204.652 48.4359 204.652 49.2231 203.917C49.5904 203.549 49.8003 203.025 49.8003 202.5C49.8003 201.975 49.5904 201.45 49.2231 201.083C48.4359 200.296 47.1765 200.296 46.3893 201.083Z" fill="#25C49E"/>
<path d="M54.2087 222.651C51.6374 222.651 49.4858 220.552 49.4858 217.928C49.4858 215.357 51.5849 213.205 54.2087 213.205C55.4682 213.205 56.6227 213.677 57.5148 214.57C58.4069 215.462 58.8792 216.616 58.8792 217.876C58.8792 219.135 58.4069 220.29 57.5148 221.182C56.6227 222.179 55.4682 222.651 54.2087 222.651ZM54.2087 215.986C53.1067 215.986 52.2146 216.879 52.2146 217.981C52.2146 219.083 53.1067 219.975 54.2087 219.975C54.7335 219.975 55.2583 219.765 55.6256 219.397C55.993 219.03 56.2029 218.505 56.2029 217.981C56.2029 217.456 55.993 216.931 55.6256 216.564C55.2583 216.196 54.7335 215.986 54.2087 215.986Z" fill="#25C49E"/>
<path d="M47.8062 238.132C46.5467 238.132 45.3922 237.659 44.5001 236.767C43.608 235.875 43.1357 234.721 43.1357 233.461C43.1357 232.202 43.608 231.047 44.5001 230.155C46.3368 228.319 49.328 228.319 51.1647 230.155C52.0568 231.047 52.5291 232.202 52.5291 233.461C52.5291 234.721 52.0568 235.875 51.1647 236.767C50.2201 237.659 49.0656 238.132 47.8062 238.132ZM47.8062 231.467C47.2814 231.467 46.8091 231.677 46.3893 232.044C46.022 232.412 45.8121 232.936 45.8121 233.461C45.8121 233.986 46.022 234.511 46.3893 234.878C46.7566 235.245 47.2814 235.455 47.8062 235.455C48.3309 235.455 48.8557 235.245 49.2231 234.878C49.5904 234.511 49.8003 233.986 49.8003 233.461C49.8003 232.936 49.5904 232.412 49.2231 232.044C48.8032 231.677 48.3309 231.467 47.8062 231.467Z" fill="#25C49E"/>
<path d="M32.3257 244.586C31.0663 244.586 29.9118 244.114 29.0197 243.222C28.1276 242.33 27.6553 241.175 27.6553 239.916C27.6553 238.656 28.1276 237.502 29.0197 236.61C29.9118 235.718 31.0663 235.245 32.3257 235.245C34.8971 235.245 37.0486 237.345 37.0486 239.968C37.0486 241.228 36.5763 242.382 35.6842 243.274C34.7396 244.062 33.5851 244.586 32.3257 244.586ZM32.3257 241.858C32.8505 241.858 33.3752 241.648 33.7426 241.28C34.1099 240.913 34.3198 240.388 34.3198 239.863C34.3198 238.761 33.4277 237.869 32.3257 237.869C31.7485 237.869 31.2762 238.079 30.9088 238.447C30.5415 238.814 30.3316 239.339 30.3316 239.863C30.3316 240.388 30.5415 240.913 30.9088 241.28C31.2762 241.648 31.8009 241.858 32.3257 241.858Z" fill="#25C49E"/>
<path d="M16.8452 238.132C15.5858 238.132 14.4313 237.659 13.5392 236.767C12.6471 235.875 12.1748 234.721 12.1748 233.461C12.1748 232.202 12.6471 231.047 13.5392 230.155C14.4313 229.263 15.5858 228.791 16.8452 228.791C18.1047 228.791 19.2592 229.263 20.1513 230.155C21.0434 231.047 21.5157 232.202 21.5157 233.461C21.5157 234.721 21.0434 235.875 20.1513 236.767C19.2592 237.659 18.1047 238.132 16.8452 238.132ZM16.8452 231.467C16.3205 231.467 15.7957 231.677 15.4284 232.044C15.061 232.412 14.8511 232.936 14.8511 233.461C14.8511 233.986 15.061 234.511 15.4284 234.878C15.7957 235.245 16.3205 235.455 16.8452 235.455C17.37 235.455 17.8948 235.245 18.2621 234.878C18.6294 234.511 18.8394 233.986 18.8394 233.461C18.8394 232.936 18.6294 232.412 18.2621 232.044C17.8948 231.677 17.37 231.467 16.8452 231.467Z" fill="#25C49E"/>
<path d="M10.4429 222.651C9.18345 222.651 8.02896 222.179 7.13686 221.287C6.24475 220.395 5.77246 219.24 5.77246 217.981C5.77246 216.721 6.24475 215.567 7.13686 214.675C8.02896 213.782 9.18345 213.31 10.4429 213.31C11.7023 213.31 12.8568 213.782 13.7489 214.675C14.641 215.567 15.1133 216.721 15.1133 217.981C15.1133 220.552 13.0143 222.651 10.4429 222.651ZM10.4429 215.986C9.91813 215.986 9.39336 216.196 9.02602 216.564C8.65868 216.931 8.44878 217.456 8.44878 217.981C8.44878 218.505 8.65868 219.03 9.02602 219.397C9.39336 219.765 9.91813 219.975 10.4429 219.975C11.5449 219.975 12.437 219.083 12.437 217.981C12.437 217.456 12.2271 216.931 11.8598 216.564C11.4924 216.196 10.9677 215.986 10.4429 215.986Z" fill="#25C49E"/>
<path d="M16.8452 207.17C15.5858 207.17 14.4313 206.698 13.5392 205.806C12.6471 204.914 12.1748 203.759 12.1748 202.5C12.1748 201.24 12.6471 200.086 13.5392 199.194C14.4313 198.302 15.5858 197.829 16.8452 197.829C18.1047 197.829 19.2592 198.302 20.1513 199.194C21.0434 200.086 21.5157 201.24 21.5157 202.5C21.5157 203.759 21.0434 204.914 20.1513 205.806C19.2592 206.698 18.1047 207.17 16.8452 207.17ZM15.4284 203.917C16.163 204.651 17.475 204.651 18.2621 203.917C18.6294 203.549 18.8394 203.025 18.8394 202.5C18.8394 201.975 18.6294 201.45 18.2621 201.083C17.8948 200.716 17.37 200.506 16.8452 200.506C16.3205 200.506 15.7957 200.716 15.4284 201.083C15.061 201.45 14.8511 201.975 14.8511 202.5C14.8511 203.025 15.061 203.549 15.4284 203.917Z" fill="#25C49E"/>
<path d="M32.3257 250.306C14.4836 250.306 0 235.823 0 217.981C0 200.138 14.4836 185.655 32.3257 185.655C50.1678 185.655 64.6514 200.138 64.6514 217.981C64.6514 235.823 50.1678 250.306 32.3257 250.306ZM32.3257 188.384C16.0054 188.384 2.72879 201.66 2.72879 217.981C2.72879 234.301 16.0054 247.577 32.3257 247.577C48.646 247.577 61.9226 234.301 61.9226 217.981C61.9226 201.66 48.646 188.384 32.3257 188.384Z" fill="#25C49E"/>
<path d="M334 233.251C325.604 233.251 318.729 226.429 318.729 217.981C318.729 209.532 325.551 202.71 334 202.71C342.449 202.71 349.271 209.532 349.271 217.981C349.271 226.429 342.396 233.251 334 233.251ZM334 205.439C327.073 205.439 321.458 211.054 321.458 217.981C321.458 224.908 327.073 230.523 334 230.523C340.927 230.523 346.542 224.908 346.542 217.981C346.542 211.054 340.927 205.439 334 205.439Z" fill="#25C49E"/>
<path d="M334 200.768C331.429 200.768 329.277 198.669 329.277 196.045C329.277 193.422 331.376 191.323 334 191.323C336.624 191.323 338.723 193.422 338.723 196.045C338.723 198.669 336.571 200.768 334 200.768ZM334 194.104C332.898 194.104 332.006 194.996 332.006 196.098C332.006 197.2 332.898 198.092 334 198.092C335.102 198.092 335.994 197.2 335.994 196.098C335.994 194.996 335.102 194.104 334 194.104Z" fill="#25C49E"/>
<path d="M349.481 207.17C348.221 207.17 347.067 206.698 346.175 205.806C345.283 204.914 344.81 203.759 344.81 202.5C344.81 201.241 345.283 200.086 346.175 199.194C348.011 197.357 351.003 197.357 352.839 199.194C353.731 200.086 354.204 201.241 354.204 202.5C354.204 203.759 353.731 204.914 352.839 205.806C351.895 206.698 350.74 207.17 349.481 207.17ZM348.064 201.083C347.697 201.45 347.487 201.975 347.487 202.5C347.487 203.025 347.697 203.549 348.064 203.917C348.799 204.652 350.11 204.652 350.898 203.917C351.265 203.549 351.475 203.025 351.475 202.5C351.475 201.975 351.265 201.45 350.898 201.083C350.11 200.296 348.851 200.296 348.064 201.083Z" fill="#25C49E"/>
<path d="M355.883 222.651C353.311 222.651 351.16 220.552 351.16 217.928C351.16 215.357 353.259 213.205 355.883 213.205C357.142 213.205 358.297 213.677 359.189 214.57C360.081 215.462 360.553 216.616 360.553 217.876C360.553 219.135 360.081 220.29 359.189 221.182C358.297 222.179 357.142 222.651 355.883 222.651ZM355.883 215.986C354.781 215.986 353.889 216.879 353.889 217.981C353.889 219.083 354.781 219.975 355.883 219.975C356.408 219.975 356.932 219.765 357.3 219.397C357.667 219.03 357.877 218.505 357.877 217.981C357.877 217.456 357.667 216.931 357.3 216.564C356.932 216.196 356.408 215.986 355.883 215.986Z" fill="#25C49E"/>
<path d="M349.481 238.132C348.221 238.132 347.067 237.659 346.175 236.767C345.283 235.875 344.81 234.721 344.81 233.461C344.81 232.202 345.283 231.047 346.175 230.155C348.011 228.319 351.003 228.319 352.839 230.155C353.731 231.047 354.204 232.202 354.204 233.461C354.204 234.721 353.731 235.875 352.839 236.767C351.895 237.659 350.74 238.132 349.481 238.132ZM349.481 231.467C348.956 231.467 348.484 231.677 348.064 232.044C347.697 232.412 347.487 232.936 347.487 233.461C347.487 233.986 347.697 234.511 348.064 234.878C348.431 235.245 348.956 235.455 349.481 235.455C350.006 235.455 350.53 235.245 350.898 234.878C351.265 234.511 351.475 233.986 351.475 233.461C351.475 232.936 351.265 232.412 350.898 232.044C350.478 231.677 350.006 231.467 349.481 231.467Z" fill="#25C49E"/>
<path d="M334 244.586C332.741 244.586 331.586 244.114 330.694 243.222C329.802 242.33 329.33 241.175 329.33 239.916C329.33 238.656 329.802 237.502 330.694 236.61C331.586 235.718 332.741 235.245 334 235.245C336.571 235.245 338.723 237.345 338.723 239.968C338.723 241.228 338.251 242.382 337.359 243.274C336.414 244.062 335.259 244.586 334 244.586ZM334 241.858C334.525 241.858 335.05 241.648 335.417 241.28C335.784 240.913 335.994 240.388 335.994 239.863C335.994 238.761 335.102 237.869 334 237.869C333.423 237.869 332.95 238.079 332.583 238.447C332.216 238.814 332.006 239.339 332.006 239.863C332.006 240.388 332.216 240.913 332.583 241.28C332.95 241.648 333.475 241.858 334 241.858Z" fill="#25C49E"/>
<path d="M318.52 238.132C317.26 238.132 316.106 237.659 315.214 236.767C314.321 235.875 313.849 234.721 313.849 233.461C313.849 232.202 314.321 231.047 315.214 230.155C316.106 229.263 317.26 228.791 318.52 228.791C319.779 228.791 320.933 229.263 321.826 230.155C322.718 231.047 323.19 232.202 323.19 233.461C323.19 234.721 322.718 235.875 321.826 236.767C320.933 237.659 319.779 238.132 318.52 238.132ZM318.52 231.467C317.995 231.467 317.47 231.677 317.103 232.044C316.735 232.412 316.525 232.936 316.525 233.461C316.525 233.986 316.735 234.511 317.103 234.878C317.47 235.245 317.995 235.455 318.52 235.455C319.044 235.455 319.569 235.245 319.936 234.878C320.304 234.511 320.514 233.986 320.514 233.461C320.514 232.936 320.304 232.412 319.936 232.044C319.569 231.677 319.044 231.467 318.52 231.467Z" fill="#25C49E"/>
<path d="M312.117 222.651C310.858 222.651 309.703 222.179 308.811 221.287C307.919 220.395 307.447 219.24 307.447 217.981C307.447 216.721 307.919 215.567 308.811 214.675C309.703 213.782 310.858 213.31 312.117 213.31C313.377 213.31 314.531 213.782 315.423 214.675C316.315 215.567 316.788 216.721 316.788 217.981C316.788 220.552 314.689 222.651 312.117 222.651ZM312.117 215.986C311.592 215.986 311.068 216.196 310.7 216.564C310.333 216.931 310.123 217.456 310.123 217.981C310.123 218.505 310.333 219.03 310.7 219.397C311.068 219.765 311.592 219.975 312.117 219.975C313.219 219.975 314.111 219.083 314.111 217.981C314.111 217.456 313.901 216.931 313.534 216.564C313.167 216.196 312.642 215.986 312.117 215.986Z" fill="#25C49E"/>
<path d="M318.52 207.17C317.26 207.17 316.106 206.698 315.214 205.806C314.321 204.914 313.849 203.759 313.849 202.5C313.849 201.24 314.321 200.086 315.214 199.194C316.106 198.302 317.26 197.829 318.52 197.829C319.779 197.829 320.933 198.302 321.826 199.194C322.718 200.086 323.19 201.24 323.19 202.5C323.19 203.759 322.718 204.914 321.826 205.806C320.933 206.698 319.779 207.17 318.52 207.17ZM317.103 203.917C317.837 204.651 319.149 204.651 319.936 203.917C320.304 203.549 320.514 203.025 320.514 202.5C320.514 201.975 320.304 201.45 319.936 201.083C319.569 200.716 319.044 200.506 318.52 200.506C317.995 200.506 317.47 200.716 317.103 201.083C316.735 201.45 316.525 201.975 316.525 202.5C316.525 203.025 316.735 203.549 317.103 203.917Z" fill="#25C49E"/>
<path d="M334 250.306C316.158 250.306 301.674 235.823 301.674 217.981C301.674 200.138 316.158 185.655 334 185.655C351.842 185.655 366.326 200.138 366.326 217.981C366.326 235.823 351.842 250.306 334 250.306ZM334 188.384C317.68 188.384 304.403 201.66 304.403 217.981C304.403 234.301 317.68 247.577 334 247.577C350.32 247.577 363.597 234.301 363.597 217.981C363.597 201.66 350.32 188.384 334 188.384Z" fill="#25C49E"/>
<line x1="31.0381" y1="187.075" x2="334.485" y2="187.075" stroke="#25C49E" stroke-width="2" stroke-dasharray="14 14"/>
<line x1="37.0488" y1="249.306" x2="340.496" y2="249.306" stroke="#25C49E" stroke-width="2" stroke-dasharray="14 14"/>
<path d="M264.026 4.16628C264.026 4.16628 261.061 1.86052 255.922 2.05816C250.784 2.2558 245.843 5.02271 245.711 12.5329C245.579 20.109 246.633 24.1935 243.932 27.158C241.231 30.0567 236.29 27.3557 234.446 31.7695C232.865 35.5246 237.081 38.3574 239.584 38.028C237.279 40.6632 236.027 44.023 236.29 47.4487C236.488 50.2815 237.806 53.1143 240.309 54.6295C241.231 55.1566 242.22 55.486 243.274 55.8153C245.645 56.4741 248.346 56.7377 250.586 55.6836C252.167 56.6059 254.144 56.6718 255.988 56.4741C259.15 56.1447 262.444 54.8272 264.223 52.3238C265.738 50.1498 266.002 47.3829 266.002 44.7477C269.032 44.2207 272.063 44.6818 273.776 42.2443C275.488 39.8068 275.884 36.5787 274.698 33.9436C273.776 31.9013 271.931 30.2543 269.955 29.0026C269.032 28.4097 268.11 27.8827 267.319 27.2239C265.87 25.9722 264.948 24.1935 264.816 22.3489L264.026 4.16628Z" fill="#1F914D"/>
<path d="M274.698 33.8777C273.776 31.8355 272.063 30.1885 270.218 28.9368C269.362 28.3439 268.505 27.8169 267.715 27.1581C266.331 25.9064 265.475 24.1276 265.343 22.283L265.014 16.2222C260.073 20.1749 256.976 26.6969 257.438 32.8895C257.767 38.5551 260.534 48.1734 265.738 52.2579C266.331 50.5451 266.463 48.5687 266.463 46.7241C269.296 46.1971 272.26 44.6819 273.841 42.2443C275.423 39.8068 275.818 36.5788 274.698 33.8777Z" fill="#1F914D"/>
<path d="M281.053 83.7019L283.021 84.8441C283.021 84.8441 284.996 88.1473 285.127 88.9623C285.207 89.8176 286.447 93.3562 285.985 93.2975C285.708 93.2623 284.538 91.7519 283.824 90.7219C283.829 91.0513 283.834 91.3807 283.879 91.7621C283.861 92.2763 283.896 97.9157 283.145 97.9142C282.607 98.0806 282.067 96.4155 282.067 96.4155C282.067 96.4155 280.893 97.1585 279.793 95.0935C279.672 94.9372 279.644 94.7927 279.615 94.6482C279.437 94.203 279.392 93.8215 279.392 93.8215C279.392 93.8215 278.963 94.2367 278.489 94.2704C278.015 94.3041 277.822 92.8708 277.822 92.8708L277.393 84.7865L281.053 83.7019Z" fill="#EFCAB0"/>
<path d="M263.471 57.989L275.678 87.1982L284.898 85.2235C284.898 85.2235 271.009 35.9844 265.786 33.1137C260.563 30.243 258.661 30.7996 257.586 33.7153C256.523 36.5386 263.471 57.989 263.471 57.989Z" fill="#93DAAE"/>
<path d="M292.749 175.188L295.252 185.597L297.558 185.004V181.578C297.558 181.578 300.259 183.686 300.786 184.016C301.313 184.345 312.117 181.446 312.117 181.446C312.117 181.446 310.009 179.602 308.56 179.141C307.11 178.679 302.762 178.614 302.762 178.614L298.81 173.804L292.749 175.188Z" fill="#93DAAE"/>
<path d="M234.512 170.247L230.164 180.063L232.338 181.051L234.38 178.35C234.38 178.35 235.236 181.644 235.434 182.237C235.698 182.83 245.975 187.046 245.975 187.046C245.975 187.046 245.382 184.279 244.525 183.093C243.669 181.842 240.243 179.141 240.243 179.141L240.046 172.948L234.512 170.247Z" fill="#93DAAE"/>
<path d="M251.64 73.6026L276.543 71.0992C276.543 71.0992 294.594 139.35 302.565 173.936L290.838 177.296L266.595 95.8697L262.445 128.941L242.352 177.889L232.47 172.685C233.787 166.426 247.49 125.647 247.49 125.647C248.083 107.86 248.61 93.0369 248.61 93.0369C246.897 84.8679 247.951 80.3223 251.64 73.6026Z" fill="#012970"/>
<path d="M251.838 79.3341L253.419 73.405L252.694 73.4709L251.245 78.873L248.676 80.1247C248.61 80.3882 248.478 80.7176 248.412 80.9811L251.838 79.3341Z" fill="#012970"/>
<path d="M259.348 78.6094C258.887 79.1365 258.36 79.4659 257.635 79.5976L258.096 73.0097L257.438 73.0756L253.748 126.306L234.644 173.87L235.236 174.2L254.407 126.569V126.503L257.635 80.2564C258.558 80.1905 259.348 79.7953 259.941 79.0706C261.325 77.3577 261.259 74.2614 261.061 72.7462L260.402 72.8121C260.468 74.1297 260.534 77.0283 259.348 78.6094Z" fill="#012970"/>
<path d="M266.595 95.8696L290.838 177.362L302.565 174.002C294.593 139.35 276.543 71.165 276.543 71.165L266.397 72.1532L269.955 75.7766L266.595 95.8696Z" fill="#012970"/>
<path d="M262.84 29.0687C261.39 27.9487 260.336 27.0923 260.336 27.0923H256.186C256.186 27.0923 255.527 27.4217 254.539 28.0146C249.993 30.5839 247.424 35.5907 247.951 40.7292L251.574 73.6028L276.477 71.0994L275.291 56.6719L273.249 46.263C271.997 39.4775 268.308 33.3508 262.84 29.0687Z" fill="#25C49E"/>
<path d="M254.934 28.278L253.09 18.0668C253.09 18.0668 249.071 19.4502 248.742 16.1563C248.478 13.2576 251.64 12.9941 253.155 14.3776C253.155 14.3776 250.389 4.16633 259.216 3.37579C268.044 2.58524 267.188 14.114 266.858 17.5398C266.397 22.6783 264.553 25.1817 261.851 25.4452L262.049 28.6074C262.049 28.6074 262.247 31.3743 259.677 31.5061C256.252 31.6378 254.934 28.278 254.934 28.278Z" fill="#EFCAB0"/>
<path d="M252.431 16.6833C252.628 16.6833 252.694 16.5515 252.694 16.4198C252.628 15.8269 252.299 15.2998 251.772 14.9704C251.245 14.7069 250.652 14.6411 250.059 14.9046C249.927 14.9704 249.927 15.1022 249.993 15.234C250.059 15.3657 250.191 15.3657 250.257 15.3657C250.652 15.1681 251.179 15.234 251.508 15.4316C251.904 15.6292 252.167 16.0904 252.167 16.4857C252.233 16.6174 252.299 16.6833 252.431 16.6833Z" fill="#93DAAE"/>
<path d="M261.852 25.4453C258.69 25.577 256.713 24.1277 256.713 24.1277C256.713 24.1277 257.899 26.1041 261.918 26.3676L261.852 25.4453Z" fill="#93DAAE"/>
<path d="M263.038 26.7627L253.419 26.2357L253.946 29.2661C253.946 29.2661 256.779 32.4283 259.678 32.1648C262.576 31.9013 263.038 29.7932 263.038 29.7932V26.7627Z" fill="#25C49E"/>
<path d="M268.308 11.6106C268.308 10.6224 268.176 8.31668 267.847 7.39438C267.517 6.47207 267.122 5.61565 266.397 4.95686C265.739 4.42983 264.882 4.23219 264.026 4.16631C261.259 3.90279 256.911 5.08862 256.318 5.28625C257.438 6.66971 257.965 10.5566 257.767 12.4012C261.325 12.3353 265.08 12.0059 268.308 11.6106Z" fill="#1F914D"/>
<path d="M257.767 8.71199C257.767 8.71199 257.174 12.3353 255.527 13.587C255.527 13.587 254.737 18.0668 256.252 18.7915C256.252 18.7915 253.156 19.2526 253.156 14.4435L251.574 11.1495C251.574 11.1495 252.167 5.74744 255.264 3.96871C258.36 2.18998 262.51 2.84877 264.421 4.75926C266.331 6.66975 257.767 8.71199 257.767 8.71199Z" fill="#1F914D"/>
<path d="M269.691 85.7903L288.862 58.6482L307.901 71.824L288.796 98.9002L269.691 85.7903Z" fill="#93DAAE"/>
<path d="M294.791 77.7531C294.791 77.7531 295.779 77.753 297.097 77.9507C298.414 78.1483 300.786 78.6754 300.984 79.4C301.181 80.1247 298.612 80.0588 298.612 80.0588C298.612 80.0588 302.499 82.8916 302.565 83.6822C302.631 84.6045 301.313 84.1433 301.313 84.1433C301.313 84.1433 301.972 85.0656 301.643 85.7244C301.313 86.3173 300.193 85.395 300.193 85.395C300.193 85.395 300.786 86.4491 300.457 87.042C300.127 87.569 298.678 86.5149 298.678 86.5149C298.678 86.5149 299.534 87.8984 298.678 88.1619C298.019 88.3596 292.09 82.2328 292.09 82.2328L294.791 77.7531Z" fill="#EFCAB0"/>
<path d="M273.644 63.589L296.174 76.1719L292.09 84.4067C292.09 84.4067 265.409 72.2191 263.696 70.7698C261.917 69.3863 273.644 63.589 273.644 63.589Z" fill="#25C49E"/>
<path d="M263.63 71.1651C263.564 71.1651 263.498 71.1651 263.433 71.0993C263.301 71.0334 260.336 69.1229 259.085 67.9371C258.228 67.1465 255.329 58.4505 250.916 44.6818C250.125 42.1125 249.466 40.1362 249.335 39.8068C249.269 39.6091 249.335 39.4774 249.532 39.3456C249.73 39.2797 249.862 39.3456 249.993 39.5433C250.125 39.8727 250.718 41.7173 251.574 44.4842C253.683 51.138 258.689 66.6195 259.612 67.41C260.863 68.53 263.894 70.4405 263.894 70.5063C264.026 70.5722 264.091 70.8357 264.026 70.9675C263.894 71.0993 263.762 71.1651 263.63 71.1651Z" fill="#93DAAE"/>
<path d="M270.152 63.3255C270.021 63.3255 269.889 63.2597 269.823 63.1279C269.757 62.7985 261.061 36.3152 257.438 32.5601C257.306 32.4283 257.306 32.2307 257.438 32.0989C257.569 31.9672 257.767 31.9672 257.899 32.0989C261.588 35.9199 270.021 61.8103 270.416 62.8644C270.482 63.062 270.35 63.1938 270.218 63.2597C270.218 63.3255 270.152 63.3255 270.152 63.3255Z" fill="#93DAAE"/>
<path d="M108.263 108.369L132.209 92.0171C133.312 91.2822 133.618 89.7511 132.883 88.5875L121.92 72.5417C121.185 71.4393 119.654 71.1331 118.491 71.868L94.5445 88.22C93.4421 88.9549 93.1359 90.486 93.8708 91.6497L104.833 107.757C105.63 108.859 107.161 109.104 108.263 108.369Z" fill="#012970"/>
<path d="M132.21 92.0168L108.263 108.369C107.161 109.104 105.63 108.859 104.834 107.695L102.078 103.714L130.066 84.6063L132.822 88.5872C133.618 89.7508 133.312 91.2819 132.21 92.0168Z" fill="#012970"/>
<path d="M108.631 101.693C108.141 102.061 107.406 101.938 107.038 101.387L105.446 98.9988L107.283 97.7126L108.876 100.101C109.243 100.652 109.121 101.387 108.631 101.693Z" fill="#263237"/>
<path d="M125.901 89.9347C126.391 89.5672 126.575 88.8935 126.207 88.3424L124.615 85.9539L122.778 87.24L124.37 89.6285C124.738 90.1184 125.411 90.2409 125.901 89.9347Z" fill="#1F914D"/>
<path d="M103.609 71.1941C103.609 71.1941 104.589 71.5003 105.752 72.1127C106.916 72.7252 108.998 74.0113 108.998 74.685C108.937 75.4199 106.548 74.7462 106.548 74.7462C106.548 74.7462 108.325 77.0122 108.08 77.8084C107.835 78.7271 106.732 77.8084 106.732 77.8084C106.732 77.8084 107.038 78.9108 106.548 79.4007C106.059 79.8907 105.262 78.6658 105.262 78.6658C105.262 78.6658 105.507 79.8907 105.017 80.3194C104.527 80.7481 103.486 79.217 103.486 79.217C103.486 79.217 103.854 80.8093 102.996 80.8093C102.323 80.8093 99.6279 74.5012 99.6279 74.5012L103.609 71.1941Z" fill="#D3A78A"/>
<path d="M111.631 75.6037L110.1 76.6448L109.304 75.4812C109.243 75.4199 109.182 75.3587 109.12 75.3587C109.059 75.3587 108.998 75.3587 108.875 75.4199L101.465 80.4419C101.343 80.5644 101.281 80.7481 101.404 80.8706L102.2 82.0342L100.669 83.0754L99.8727 81.9117C99.5665 81.4218 99.444 80.8706 99.5665 80.3194C99.689 79.7682 99.9952 79.2783 100.485 78.9721L107.896 73.9501C108.386 73.6439 108.937 73.5214 109.488 73.6439C110.039 73.7663 110.529 74.0726 110.835 74.5625L111.631 75.6037Z" fill="#1F914D"/>
<path d="M112.245 75.2337L109.513 77.0963L109.961 77.7542L112.694 75.8916L112.245 75.2337Z" fill="#1F914D"/>
<path d="M102.867 81.63L100.134 83.4926L100.582 84.1504L103.315 82.2878L102.867 81.63Z" fill="#263237"/>
<path d="M105.752 72.1128C106.916 72.7252 108.998 74.0113 108.998 74.685C108.937 75.4199 106.548 74.7463 106.548 74.7463L105.752 72.1128Z" fill="#D3A78A"/>
<path d="M107.896 76.8898C107.345 75.4812 106.242 75.2975 106.242 76.8898C106.242 76.8898 104.711 75.7262 104.895 77.686C104.895 77.686 103.058 76.2162 103.364 78.6659C103.364 78.6659 101.343 77.9922 102.261 79.952L104.589 78.2984L107.896 76.8898Z" fill="#D3A78A"/>
<path d="M106.181 70.2142L95.647 53.4335L90.135 44.8594C90.135 44.8594 84.9906 47.3091 84.1332 52.3923C83.4595 56.067 93.0135 68.8669 98.4029 75.6649C100.914 73.7663 103.547 71.9903 106.181 70.2142Z" fill="#25C49E"/>
<path d="M70.6597 69.418C70.7209 62.375 74.518 49.6976 74.518 49.6976C74.518 49.6976 74.273 36.1628 78.5601 29.9772C80.8873 26.6088 92.0337 26.1801 92.0337 26.1801L98.0355 28.691C98.0355 28.691 101.894 30.3446 104.282 34.8766C106.242 38.6125 100.975 56.3119 100.975 56.3119L101.036 67.6419C101.036 68.9281 100.057 69.9692 98.7705 70.0917L73.2931 71.8065C71.8845 71.929 70.6597 70.8266 70.6597 69.418Z" fill="#93DAAE"/>
<path d="M120.328 37.1427L119.961 35.1829C119.961 35.1829 121.002 31.937 121.492 31.3858C121.982 30.8346 123.635 27.9562 123.819 28.3236C123.942 28.5686 123.635 30.1609 123.39 31.2633C123.574 31.0796 123.819 30.8959 124.003 30.6509C124.309 30.3447 128.045 27.0988 128.535 27.5887C128.963 27.8337 128.167 29.181 128.167 29.181C128.167 29.181 129.331 29.4873 128.596 31.4471C128.535 31.5695 128.474 31.692 128.412 31.8145C128.229 32.182 128.045 32.427 128.045 32.427C128.045 32.427 128.596 32.427 128.841 32.7944C129.147 33.1006 128.351 34.0193 128.351 34.0193L123.207 38.98L120.328 37.1427Z" fill="#D3A78A"/>
<path d="M101.098 52.3312L119.226 33.8969L124.983 39.3475C124.983 39.3475 108.202 63.355 102.996 63.7837C97.7906 64.2124 94.1772 59.8029 94.1772 59.8029L101.098 52.3312Z" fill="#93DAAE"/>
<path d="M89.8291 15.7687L90.809 19.3208V15.8912L89.8291 15.7687Z" fill="#444444"/>
<path d="M96.3818 25.5065L99.8115 27.5275L100.791 31.7533L98.2804 28.7524L97.6067 31.0184L96.3818 25.5065Z" fill="#DDCCC4"/>
<path d="M90.5026 25.874L90.6251 16.1975C90.6251 16.1975 86.7055 16.7487 87.0117 13.6865C87.2567 10.9918 90.1963 11.3592 91.36 12.8291C91.36 12.8291 90.6863 2.84638 98.8929 3.88753C106.671 4.86742 103.792 15.7688 103.302 18.4635C102.445 23.1793 99.8728 24.7716 97.3618 24.5266L96.9944 27.4663C96.9944 27.4663 96.6882 28.9974 94.2997 28.6299C91.115 28.14 90.5026 25.874 90.5026 25.874Z" fill="#D3A78A"/>
<path d="M90.3188 14.8502C90.5025 14.8502 90.5638 14.7889 90.5638 14.6664C90.625 14.1153 90.38 13.5641 90.0126 13.1966C89.5839 12.8291 89.0327 12.7066 88.4815 12.8291C88.359 12.8291 88.2977 12.9516 88.359 13.0741C88.359 13.1966 88.4815 13.2578 88.604 13.1966C89.0327 13.0741 89.4614 13.1966 89.7676 13.5028C90.0738 13.7478 90.2575 14.1765 90.1963 14.6052C90.1351 14.7277 90.1963 14.7889 90.3188 14.8502Z" fill="#444444"/>
<path d="M97.3621 24.5266C94.4837 24.0979 92.8914 22.3831 92.8914 22.3831C92.8914 22.3831 93.6263 24.4041 97.2397 25.3227L97.3621 24.5266Z" fill="#444444"/>
<path d="M128.229 185.658L127.8 184.434L141.825 179.84L142.008 181.126L128.229 185.658Z" fill="#1F914D"/>
<path d="M127.8 184.433L124.432 176.227L132.026 173.655L133.741 178.37C133.741 178.37 141.029 177.88 141.825 179.963L127.8 184.433Z" fill="#444444"/>
<path d="M98.7705 70.0917L136.313 175.369L124.554 181.004L88.2979 95.324L95.6471 70.2754L98.7705 70.0917Z" fill="#263237"/>
<path d="M43.5288 176.9L44.2637 175.798L56.4512 184.188L55.5325 185.046L43.5288 176.9Z" fill="#1F914D"/>
<path d="M44.2637 175.798L48.7345 168.143L55.41 172.552L52.7153 176.778C52.7153 176.778 57.5535 182.229 56.3899 184.189L44.2637 175.798Z" fill="#444444"/>
<path d="M73.2931 71.8065C73.2931 71.8065 69.6797 79.3394 72.3132 89.6284L69.9247 128.089L46.2847 170.409L56.3899 175.982C56.3899 175.982 83.827 134.03 84.8681 130.968C85.9093 127.906 94.9733 77.5021 94.9733 77.5021L95.647 70.2754L73.2931 71.8065Z" fill="#263237"/>
<path d="M89.2778 11.7266C89.2778 11.7266 88.6041 5.05103 89.0941 4.37735C93.8711 -2.11447 100.608 1.86636 100.608 1.86636C100.914 1.56015 101.22 1.37641 101.649 1.0702C102.384 0.580248 103.67 0.641491 104.527 1.00895C105.446 1.37641 105.997 2.05009 106.181 2.96875C105.63 2.78502 105.079 2.84626 104.589 3.09123C104.099 3.33621 103.67 3.76491 103.486 4.25486C104.65 4.07113 105.997 4.74481 106.61 5.72471C107.222 6.76585 107.283 8.97062 106.61 9.95051C105.324 8.35818 103.058 7.62326 101.098 8.17445C101.465 8.72564 101.343 9.58305 100.853 10.0118C100.669 9.15435 99.9954 8.29694 99.1993 7.92948C98.0356 9.21559 96.2596 10.0118 94.4835 9.88927C94.361 11.5428 93.7486 12.4003 92.9524 13.8701C92.9524 14.7275 92.9524 15.6462 92.9524 16.5036C92.585 16.1974 92.1563 15.9524 91.7888 15.6462L91.4213 12.8902C91.4213 12.8902 90.5639 11.9103 89.2778 11.7266Z" fill="#444444"/>
<path d="M89.9512 4.00999C89.9512 4.00999 88.6039 2.72388 87.1953 4.13248C85.7867 5.54108 88.6651 11.7267 88.6651 11.7267C88.6651 11.7267 90.0125 11.4205 91.4211 12.8903L89.9512 4.00999Z" fill="#444444"/>
<path d="M99.6893 63.9674C99.5668 63.9674 96.8108 63.7224 93.3199 60.0478C89.8903 56.4344 78.744 40.5723 78.254 39.8987C78.1315 39.7762 78.1928 39.5925 78.3153 39.47C78.4378 39.3475 78.6215 39.4087 78.744 39.5312C78.8665 39.7149 90.3802 56.0057 93.7486 59.6191C97.0558 63.11 99.628 63.355 99.6893 63.355C99.873 63.355 99.9955 63.5387 99.9955 63.6612C99.9955 63.8449 99.8118 63.9674 99.6893 63.9674Z" fill="#25C49E"/>
<path d="M101.098 51.0448C100.975 51.0448 100.914 50.9836 100.853 50.9223C100.731 50.7386 86.1546 31.4469 83.9498 29.7933C83.8273 29.6708 83.7661 29.4871 83.8885 29.3646C84.011 29.2421 84.1948 29.1809 84.3172 29.3033C86.6445 31.0182 100.792 49.7587 101.404 50.5549C101.527 50.6773 101.465 50.8611 101.343 50.9836C101.22 51.0448 101.159 51.0448 101.098 51.0448Z" fill="#25C49E"/>
<path d="M89.4612 24.0978L96.9329 27.6499L97.6066 31.0183L96.2593 28.7523L94.0545 31.6307L87.8689 26.5475L89.4612 24.0978Z" fill="#1F914D"/>
<path d="M83.0924 71.1329C82.6637 73.3377 81.5613 77.7472 79.1115 78.5434L75.192 127.722C75.192 127.783 75.192 127.783 75.1307 127.844L49.8984 172.369L49.3472 172.124L74.5795 127.661L79.1115 71.4392L79.724 71.3779L79.234 77.8697C81.0713 77.0123 82.1125 73.2152 82.4799 71.1942L83.0924 71.1329ZM73.4771 78.8496C73.5996 78.8496 73.7221 78.7271 73.7221 78.6047L75.3757 71.6841L74.7633 71.7454L73.2322 78.2984L71.5786 78.4209C71.5786 78.6047 71.5173 78.8496 71.5173 79.0334L73.4771 78.8496Z" fill="#263237"/>
</svg>
