<svg width="239" height="251" viewBox="0 0 239 251" fill="none" xmlns="http://www.w3.org/2000/svg">
<path d="M190.706 139.226C190.706 139.364 190.706 139.364 190.706 139.226L185.632 138.404C185.358 173.235 180.284 199.701 180.284 199.701L220.189 206.831C227.731 167.612 229.102 145.672 229.102 145.672L190.706 139.226Z" fill="#25C49E"/>
<path d="M160.401 117.438H196.878C196.878 117.438 196.192 95.497 200.717 67.5226L160.95 67.1113C161.087 66.9741 159.167 84.801 160.401 117.438Z" fill="#93DAAE"/>
<path d="M176.994 88.6405C183.028 80.0013 189.61 72.5963 196.055 67.2483L160.95 66.8369C160.95 66.8369 159.03 84.6637 160.264 117.301H162.87C165.338 108.799 170.137 98.7881 176.994 88.6405Z" fill="#93DAAE"/>
<path d="M166.435 85.4865L174.937 85.6236L175.074 84.938H166.435V85.4865Z" fill="#1F914D"/>
<path d="M166.024 94.537H171.372V93.8514L166.024 93.7142V94.537Z" fill="#1F914D"/>
<path d="M172.331 94.6741L173.84 94.537V93.8513H172.331V94.6741Z" fill="#1F914D"/>
<path d="M169.863 83.2925L175.348 83.4296L175.486 82.7439L170 82.6068L169.863 83.2925Z" fill="#1F914D"/>
<path d="M183.165 82.881L176.445 82.7439L176.171 83.4295L183.028 83.5667L183.165 82.881Z" fill="#1F914D"/>
<path d="M184.125 82.881L183.851 83.5666L186.73 83.7038L187.279 82.881H184.125Z" fill="#1F914D"/>
<path d="M169.041 82.6068H166.435V83.2925H168.903L169.041 82.6068Z" fill="#1F914D"/>
<path d="M183.713 87.132L176.034 86.9949L175.897 87.8176H183.576L183.713 87.132Z" fill="#1F914D"/>
<path d="M170.686 87.6806H174.8L175.074 86.9949L170.823 86.8578L170.686 87.6806Z" fill="#1F914D"/>
<path d="M169.726 87.6806L169.863 86.8578L166.572 86.9949V87.6806H169.726Z" fill="#1F914D"/>
<path d="M188.924 94.1255L184.262 93.9884L184.125 94.6741L188.787 94.8112L188.924 94.1255Z" fill="#1F914D"/>
<path d="M178.914 94.6741H183.165L183.302 93.9884L179.051 93.8513L178.914 94.6741Z" fill="#1F914D"/>
<path d="M178.091 94.6741L178.228 93.8513L174.937 93.9884L174.8 94.537L178.091 94.6741Z" fill="#1F914D"/>
<path d="M190.295 101.256L185.633 101.119L185.496 101.942H190.158L190.295 101.256Z" fill="#1F914D"/>
<path d="M180.285 101.805L184.536 101.942L184.673 101.119L180.422 100.982L180.285 101.805Z" fill="#1F914D"/>
<path d="M179.325 101.805L179.462 100.982L176.171 101.119V101.805H179.325Z" fill="#1F914D"/>
<path d="M172.057 80.9612L178.639 81.0983L178.914 80.2756L172.194 80.1384L172.057 80.9612Z" fill="#1F914D"/>
<path d="M185.084 80.2755H179.736L179.599 81.0983L184.81 81.2354L185.084 80.2755Z" fill="#1F914D"/>
<path d="M171.234 80.8241L171.372 80.1384H166.161L166.298 80.8241L171.234 80.9612V80.8241Z" fill="#1F914D"/>
<path d="M185.907 80.2755L185.77 81.2354L189.061 81.3725L189.61 80.4126L185.907 80.2755Z" fill="#1F914D"/>
<path d="M166.024 101.668H174.389L174.526 101.119H166.024V101.668Z" fill="#1F914D"/>
<path d="M169.314 99.4736H174.937L175.074 98.788H169.452L169.314 99.4736Z" fill="#1F914D"/>
<path d="M182.753 98.9251L175.897 98.788L175.76 99.6107L182.479 99.7479L182.753 98.9251Z" fill="#1F914D"/>
<path d="M183.576 98.925L183.439 99.7478H186.319L186.867 98.925H183.576Z" fill="#1F914D"/>
<path d="M168.629 98.788L165.886 98.6509L166.024 99.3365H168.492L168.629 98.788Z" fill="#1F914D"/>
<path d="M183.302 103.176H175.623L175.348 103.862H183.165L183.302 103.176Z" fill="#1F914D"/>
<path d="M170.137 103.725L174.388 103.862L174.526 103.176L170.275 103.039L170.137 103.725Z" fill="#1F914D"/>
<path d="M169.315 103.725L169.452 103.039H166.161L166.024 103.725H169.315Z" fill="#1F914D"/>
<path d="M171.646 97.0052L178.228 97.1424L178.365 96.3196H171.783L171.646 97.0052Z" fill="#1F914D"/>
<path d="M184.536 96.4567L179.325 96.3196L179.051 97.1424L184.399 97.2795L184.536 96.4567Z" fill="#1F914D"/>
<path d="M170.686 97.0053L170.96 96.3196L165.612 96.1825L165.749 96.8681L170.823 97.0053H170.686Z" fill="#1F914D"/>
<path d="M185.496 96.4567L185.222 97.2794L188.513 97.4166L189.198 96.4567H185.496Z" fill="#1F914D"/>
<path d="M170 92.4801L175.486 92.6172L175.623 91.7944H170.138L170 92.4801Z" fill="#1F914D"/>
<path d="M179.599 91.9316L176.583 91.7944L176.308 92.6172L179.462 92.7543L179.599 91.9316Z" fill="#1F914D"/>
<path d="M181.108 91.9315L180.971 92.7543H186.867L187.416 91.9315H181.108Z" fill="#1F914D"/>
<path d="M169.178 91.7944L166.435 91.6572L166.572 92.3429H169.041L169.178 91.7944Z" fill="#1F914D"/>
<path d="M171.372 90.1488L177.542 90.2859L177.817 89.4631H171.509L171.372 90.1488Z" fill="#1F914D"/>
<path d="M183.576 89.6002H178.639L178.502 90.2859L183.439 90.423L183.576 89.6002Z" fill="#1F914D"/>
<path d="M170.549 90.1488L170.686 89.4632L165.612 89.326L165.749 90.0117L170.549 90.1488Z" fill="#1F914D"/>
<path d="M184.536 89.6002L184.262 90.423L187.416 90.5601L187.964 89.6002H184.536Z" fill="#1F914D"/>
<path d="M33.4844 0.482422L0.710449 23.6573C0.710449 23.6573 11.2694 38.0559 34.4443 61.7793L64.3385 40.1128C64.2014 40.1128 48.7058 24.0687 33.4844 0.482422Z" fill="#93DAAE"/>
<path d="M172.056 247.252C172.056 247.252 200.305 254.52 223.069 247.252L238.29 223.94C238.29 223.94 187.141 230.934 176.033 225.037L172.056 247.252Z" fill="#93DAAE"/>
<path d="M176.033 225.037C176.17 225.174 176.444 225.311 176.581 225.311C176.444 225.174 176.17 225.174 176.033 225.037Z" fill="#25C49E"/>
<path d="M180.284 226.408C182.478 227.094 184.672 227.917 186.866 228.877C200.305 234.499 209.767 242.864 211.824 249.72C215.664 249.172 219.503 248.486 223.069 247.252L238.29 223.94C238.29 223.94 196.603 229.562 180.284 226.408Z" fill="#25C49E"/>
<path d="M105.142 62.6705L82.3782 37.1644C82.3782 37.1644 102.125 25.6455 123.654 7.13306L149.023 34.5589C149.023 34.5589 134.487 45.6664 105.142 62.6705Z" fill="#93DAAE"/>
<path d="M119.952 35.3818C123.791 26.4683 126.123 17.8292 126.671 10.4242L149.023 34.559C149.023 34.559 134.625 45.6665 105.279 62.6705L103.633 60.7507C109.53 54.5799 115.426 45.6665 119.952 35.3818Z" fill="#93DAAE"/>
<path d="M129.276 40.8671L123.928 35.1077L124.34 34.6963L129.825 40.5929L129.276 40.8671Z" fill="#1F914D"/>
<path d="M121.734 46.0778L118.169 42.3753L118.854 42.1011L122.42 45.6664L121.734 46.0778Z" fill="#1F914D"/>
<path d="M117.62 41.827L116.66 40.73L117.346 40.3186L118.306 41.4156L117.62 41.827Z" fill="#1F914D"/>
<path d="M129.139 37.3017L125.573 33.5992L126.122 33.0507L129.55 36.8903L129.139 37.3017Z" fill="#1F914D"/>
<path d="M121.185 27.8396L125.436 32.502L125.025 33.0505L120.637 28.3881L121.185 27.8396Z" fill="#1F914D"/>
<path d="M120.637 27.154L119.951 27.8397L118.169 25.7827L118.58 24.96L120.637 27.154Z" fill="#1F914D"/>
<path d="M130.099 37.4387L131.881 39.3585L131.333 39.6328L129.687 37.9872L130.099 37.4387Z" fill="#1F914D"/>
<path d="M117.072 29.7594L121.871 35.1074L121.46 35.656L116.523 30.1708L117.072 29.7594Z" fill="#1F914D"/>
<path d="M124.751 39.2214L122.008 36.3417L122.557 35.7932L125.437 38.6729L124.751 39.2214Z" fill="#1F914D"/>
<path d="M125.299 39.77L125.985 39.2214L127.905 41.5526L127.356 41.964L125.299 39.77Z" fill="#1F914D"/>
<path d="M107.61 30.0338L110.627 33.1878L110.078 33.5992L107.198 30.4452L107.61 30.0338Z" fill="#1F914D"/>
<path d="M113.507 37.3018L110.764 34.2849L111.313 33.8735L114.055 36.7533L113.507 37.3018Z" fill="#1F914D"/>
<path d="M114.055 37.8503L114.603 37.3018L116.523 39.633L116.112 40.0443L114.055 37.8503Z" fill="#1F914D"/>
<path d="M100.479 33.0507L103.496 36.2046L102.947 36.616L100.068 33.462L100.479 33.0507Z" fill="#1F914D"/>
<path d="M106.376 40.3185L103.633 37.4388L104.182 36.8903L106.924 39.77L106.376 40.3185Z" fill="#1F914D"/>
<path d="M106.924 40.8671L107.473 40.3186L109.53 42.6498L108.981 43.0612L106.924 40.8671Z" fill="#1F914D"/>
<path d="M129.825 34.4219L125.573 30.0338L126.122 29.3481L130.373 33.8734L129.825 34.4219Z" fill="#1F914D"/>
<path d="M122.145 25.0972L125.573 28.7997L124.888 29.3482L121.459 25.7828L122.145 25.0972Z" fill="#1F914D"/>
<path d="M130.373 35.1075L130.922 34.559L134.213 38.1243L133.527 38.3986L130.373 34.9703V35.1075Z" fill="#1F914D"/>
<path d="M121.597 24.5486L120.911 25.0971L118.854 22.903L119.266 21.9431L121.597 24.5486Z" fill="#1F914D"/>
<path d="M115.426 50.0546L110.078 44.2952L110.627 43.8838L115.975 49.7804L115.426 50.0546Z" fill="#1F914D"/>
<path d="M115.289 46.4894L111.724 42.7869L112.272 42.2384L115.838 46.078L115.289 46.4894Z" fill="#1F914D"/>
<path d="M107.336 37.0273L111.724 41.6897L111.175 42.1011L106.787 37.5759L107.336 37.0273Z" fill="#1F914D"/>
<path d="M106.787 36.3418L106.239 36.8903L104.319 34.9705L104.73 34.1477L106.787 36.3418Z" fill="#1F914D"/>
<path d="M116.386 46.6265L118.032 48.5463L117.483 48.8205L115.838 47.175L116.386 46.6265Z" fill="#1F914D"/>
<path d="M103.222 38.9471L108.158 44.2952L107.61 44.7066L102.673 39.3585L103.222 38.9471Z" fill="#1F914D"/>
<path d="M110.901 48.4091L108.295 45.3922L108.844 44.9808L111.587 47.8606L110.901 48.4091Z" fill="#1F914D"/>
<path d="M111.586 48.9576L112.135 48.4091L114.055 50.7403L113.643 51.1516L111.586 48.9576Z" fill="#1F914D"/>
<path d="M115.975 43.6094L111.724 39.0842L112.272 38.5356L116.523 43.0609L115.975 43.6094Z" fill="#1F914D"/>
<path d="M108.296 34.2847L111.724 37.9872L111.175 38.5357L107.747 34.9703L108.296 34.2847Z" fill="#1F914D"/>
<path d="M116.523 44.1578L117.072 43.7465L120.5 47.3118L119.815 47.5861L116.523 44.1578Z" fill="#1F914D"/>
<path d="M107.747 33.7362L107.062 34.2847L105.005 32.0906L105.416 31.1307L107.747 33.7362Z" fill="#1F914D"/>
<path d="M121.049 42.2384L117.483 38.5359L118.032 37.9874L121.46 41.827L121.049 42.2384Z" fill="#1F914D"/>
<path d="M115.426 35.382L117.483 37.4389L116.935 37.8503L114.878 35.9305L115.426 35.382Z" fill="#1F914D"/>
<path d="M114.466 34.2849L113.781 34.8334L110.078 30.7195L110.49 29.8967L114.466 34.2849Z" fill="#1F914D"/>
<path d="M122.145 42.3755L123.791 44.2953L123.242 44.5696L121.597 42.924L122.145 42.3755Z" fill="#1F914D"/>
<path d="M122.146 40.0442L118.169 35.7931L118.717 35.2446L122.694 39.6328L122.146 40.0442Z" fill="#1F914D"/>
<path d="M114.878 31.2679L118.169 34.6962L117.62 35.2447L114.329 31.8165L114.878 31.2679Z" fill="#1F914D"/>
<path d="M122.694 40.5927L123.243 40.1813L126.397 43.6095L125.711 43.8838L122.694 40.5927Z" fill="#1F914D"/>
<path d="M114.329 30.5823L113.781 31.2679L111.724 29.0739L112.135 28.2511L114.329 30.5823Z" fill="#1F914D"/>
<path d="M112.011 107.479H32.5247V131.887H112.011V107.479Z" fill="#25C49E"/>
<path d="M128.745 107.479H112.011V131.887H128.745V107.479Z" fill="#93DAAE"/>
<path d="M117.589 130.841H38.1028V151.414H117.589V130.841Z" fill="#1F914D"/>
<path d="M134.323 130.841H117.589V151.414H134.323V130.841Z" fill="#93DAAE"/>
<path d="M72.2681 131.887L117.589 137.118V130.841L72.2681 131.887Z" fill="#93DAAE"/>
<path d="M122.121 193.256H42.635V170.592L122.121 176.171V193.256Z" fill="#1F914D"/>
<path d="M138.855 176.171H122.121V192.907H138.855V176.171Z" fill="#93DAAE"/>
<path d="M76.8003 178.611L122.121 183.842V177.565L76.8003 178.611Z" fill="#93DAAE"/>
<path d="M150.708 183.842L22.4148 169.894V151.414H150.708V183.842Z" fill="#25C49E"/>
<path d="M150.708 183.842L132.58 183.493V151.414H150.708V183.842Z" fill="#93DAAE"/>
<path d="M132.58 151.414H22.4148L132.58 158.388V151.414Z" fill="#93DAAE"/>
<path d="M134.323 184.888L89.0022 178.263L137.81 178.611L134.323 184.888Z" fill="#93DAAE"/>
<path d="M145.828 193.256H29.3872V224.289H145.828V193.256Z" fill="#1F914D"/>
<path d="M145.828 193.256H127.351V225.335H145.828V193.256Z" fill="#25C49E"/>
<path d="M127.351 193.256H101.901L128.745 199.881L127.351 193.256Z" fill="#25C49E"/>
<path d="M156.286 223.94H40.543V243.815H156.286V223.94Z" fill="#25C49E"/>
<path d="M155.937 223.94H118.983V243.815H155.937V223.94Z" fill="#25C49E"/>
<path d="M118.983 223.94H79.5886L118.983 228.822V223.94Z" fill="#25C49E"/>
<path d="M40.543 231.96L97.02 233.704H40.543V231.96Z" fill="#93DAAE"/>
<path d="M29.3872 193.256H79.589L29.3872 196.394V193.256Z" fill="#93DAAE"/>
<path d="M32.5247 119.683H72.2678L32.5247 123.867V119.683Z" fill="#93DAAE"/>
<path d="M42.635 184.888L55.5341 183.144L42.635 181.749V184.888Z" fill="#93DAAE"/>
<path d="M125.956 92.1373H18.9285V107.48H125.956V92.1373Z" fill="#1F914D"/>
<path d="M125.956 92.1373H102.598V107.48H125.956V92.1373Z" fill="#93DAAE"/>
<path d="M102.598 92.1373H77.4976L102.598 95.9729V92.1373Z" fill="#93DAAE"/>
<path d="M18.9285 98.4133L71.222 99.8081H18.9285V98.4133Z" fill="#93DAAE"/>
<path d="M107.828 77.1437H59.0203V92.1372H107.828V77.1437Z" fill="#25C49E"/>
<path d="M118.286 77.1437H107.828V92.1372H118.286V77.1437Z" fill="#93DAAE"/>
<path d="M59.0203 84.8146H83.4239L59.0203 87.2554V84.8146Z" fill="#93DAAE"/>
</svg>
